<svg width="18" height="17" viewBox="0 0 18 17" fill="none" xmlns="http://www.w3.org/2000/svg">
<path fill-rule="evenodd" clip-rule="evenodd" d="M8.99997 13.9999L4.91559 16.1472C4.42675 16.4042 3.82212 16.2163 3.56512 15.7274C3.46278 15.5328 3.42746 15.3098 3.46464 15.0931L4.24469 10.545L0.940356 7.32411C0.544872 6.9386 0.53678 6.30549 0.922281 5.91001C1.07579 5.75252 1.27693 5.65004 1.49457 5.61841L6.06105 4.95486L8.10324 0.816935C8.34766 0.321681 8.94728 0.118342 9.44254 0.362764C9.63975 0.460095 9.79938 0.619722 9.89671 0.816935L11.9389 4.95486L16.5054 5.61841C17.0519 5.69783 17.4306 6.20527 17.3512 6.75182C17.3196 6.96945 17.2171 7.1706 17.0596 7.32411L13.7553 10.545L14.5353 15.0931C14.6287 15.6374 14.2631 16.1544 13.7187 16.2477C13.502 16.2849 13.279 16.2496 13.0844 16.1472L8.99997 13.9999Z" fill="#0047BB"/>
</svg>
